999
dxfrw 0.5.7
0
SECTION
2
HEADER
9
$ACADVER
1
AC1021
9
$HANDSEED
5
20000
9
$DWGCODEPAGE
3
ANSI_1252
9
$INSBASE
10
0
20
0
30
0
9
$EXTMIN
10
-250
20
-37
30
0
9
$EXTMAX
10
721
20
416
30
0
9
$LIMMIN
10
0
20
0
9
$LIMMAX
10
420
20
297
9
$ORTHOMODE
70
0
9
$LTSCALE
40
1
9
$TEXTSTYLE
7
STANDARD
9
$DIMASZ
40
0.1
9
$DIMSCALE
40
100
9
$DIMEXO
40
0.025
9
$DIMEXE
40
0.05
9
$DIMTXT
40
0.1
9
$DIMTSZ
40
0
9
$DIMAUNIT
70
0
9
$DIMADEC
70
2
9
$DIMLUNIT
70
5
9
$DIMSTYLE
2
Standard
9
$DIMGAP
40
0.1
9
$DIMTIH
70
0
9
$LUNITS
70
5
9
$LUPREC
70
4
9
$AUNITS
70
0
9
$AUPREC
70
2
9
$SPLINESEGS
70
8
9
$GRIDMODE
70
1
9
$SNAPSTYLE
70
0
9
$GRIDUNIT
10
0
20
0
9
$PINSBASE
10
0
20
0
30
0
9
$PLIMMIN
10
0
20
0
9
$PLIMMAX
10
8.26771653543
20
11.6929133858
9
$INSUNITS
70
1
9
$PSVPSCALE
40
1
0
ENDSEC
0
SECTION
2
CLASSES
0
ENDSEC
0
SECTION
2
TABLES
0
TABLE
2
VPORT
5
8
330
0
100
AcDbSymbolTable
70
1
0
VPORT
5
31
330
2
100
AcDbSymbolTableRecord
100
AcDbViewportTableRecord
2
*ACTIVE
70
0
10
0
20
0
11
1
21
1
12
434.539716312
22
304.384397163
13
0
23
0
14
10
24
10
15
10
25
10
16
0
26
0
36
1
17
0
27
0
37
0
40
1009.56453901
41
0.989085948158
42
50
43
0
44
0
50
0
51
0
71
0
72
100
73
1
74
3
75
0
76
1
77
0
78
0
281
0
65
1
110
0
120
0
130
0
111
1
121
0
131
0
112
0
122
1
132
0
79
0
146
0
348
10020
60
7
61
5
292
1
282
1
141
0
142
0
63
250
421
3358443
0
ENDTAB
0
TABLE
2
LTYPE
5
5
330
0
100
AcDbSymbolTable
70
4
0
LTYPE
5
14
330
5
100
AcDbSymbolTableRecord
100
AcDbLinetypeTableRecord
2
ByBlock
70
0
3

72
65
73
0
40
0
0
LTYPE
5
15
330
5
100
AcDbSymbolTableRecord
100
AcDbLinetypeTableRecord
2
ByLayer
70
0
3

72
65
73
0
40
0
0
LTYPE
5
16
330
5
100
AcDbSymbolTableRecord
100
AcDbLinetypeTableRecord
2
Continuous
70
0
3
Solid line
72
65
73
0
40
0
0
LTYPE
5
32
330
5
100
AcDbSymbolTableRecord
100
AcDbLinetypeTableRecord
2
DOT
70
0
3
Dot . . . . . . . . . . . . . . . . . . . . . .
72
65
73
2
40
6.35
49
0
74
0
49
-6.35
74
0
0
LTYPE
5
33
330
5
100
AcDbSymbolTableRecord
100
AcDbLinetypeTableRecord
2
DOT2
70
0
3
Dot (.5x) .....................................
72
65
73
2
40
3.175
49
0
74
0
49
-3.175
74
0
0
LTYPE
5
34
330
5
100
AcDbSymbolTableRecord
100
AcDbLinetypeTableRecord
2
DOTX2
70
0
3
Dot (2x) .  .  .  .  .  .  .  .  .  .  .  .  .
72
65
73
2
40
12.7
49
0
74
0
49
-12.7
74
0
0
LTYPE
5
35
330
5
100
AcDbSymbolTableRecord
100
AcDbLinetypeTableRecord
2
DASHED
70
0
3
Dot . . . . . . . . . . . . . . . . . . . . . .
72
65
73
2
40
19.05
49
12.7
74
0
49
-6.35
74
0
0
LTYPE
5
36
330
5
100
AcDbSymbolTableRecord
100
AcDbLinetypeTableRecord
2
DASHED2
70
0
3
Dashed (.5x) _ _ _ _ _ _ _ _ _ _ _ _ _ _ _ _ _
72
65
73
2
40
9.525
49
6.35
74
0
49
-3.175
74
0
0
LTYPE
5
37
330
5
100
AcDbSymbolTableRecord
100
AcDbLinetypeTableRecord
2
DASHEDX2
70
0
3
Dashed (2x) ____  ____  ____  ____  ____  ___
72
65
73
2
40
38.1
49
25.4
74
0
49
-12.7
74
0
0
LTYPE
5
38
330
5
100
AcDbSymbolTableRecord
100
AcDbLinetypeTableRecord
2
DASHDOT
70
0
3
Dash dot __ . __ . __ . __ . __ . __ . __ . __
72
65
73
4
40
25.4
49
12.7
74
0
49
-6.35
74
0
49
0
74
0
49
-6.35
74
0
0
LTYPE
5
39
330
5
100
AcDbSymbolTableRecord
100
AcDbLinetypeTableRecord
2
DASHDOT2
70
0
3
Dash dot (.5x) _._._._._._._._._._._._._._._.
72
65
73
4
40
12.7
49
6.35
74
0
49
-3.175
74
0
49
0
74
0
49
-3.175
74
0
0
LTYPE
5
3A
330
5
100
AcDbSymbolTableRecord
100
AcDbLinetypeTableRecord
2
DASHDOTX2
70
0
3
Dash dot (2x) ____  .  ____  .  ____  .  ___
72
65
73
4
40
50.8
49
25.4
74
0
49
-12.7
74
0
49
0
74
0
49
-12.7
74
0
0
LTYPE
5
3B
330
5
100
AcDbSymbolTableRecord
100
AcDbLinetypeTableRecord
2
DIVIDE
70
0
3
Divide ____ . . ____ . . ____ . . ____ . . ____
72
65
73
6
40
31.75
49
12.7
74
0
49
-6.35
74
0
49
0
74
0
49
-6.35
74
0
49
0
74
0
49
-6.35
74
0
0
LTYPE
5
3C
330
5
100
AcDbSymbolTableRecord
100
AcDbLinetypeTableRecord
2
DIVIDE2
70
0
3
Divide (.5x) __..__..__..__..__..__..__..__.._
72
65
73
6
40
15.875
49
6.35
74
0
49
-3.175
74
0
49
0
74
0
49
-3.175
74
0
49
0
74
0
49
-3.175
74
0
0
LTYPE
5
3D
330
5
100
AcDbSymbolTableRecord
100
AcDbLinetypeTableRecord
2
DIVIDEX2
70
0
3
Divide (2x) ________  .  .  ________  .  .  _
72
65
73
6
40
63.5
49
25.4
74
0
49
-12.7
74
0
49
0
74
0
49
-12.7
74
0
49
0
74
0
49
-12.7
74
0
0
LTYPE
5
3E
330
5
100
AcDbSymbolTableRecord
100
AcDbLinetypeTableRecord
2
BORDER
70
0
3
Border __ __ . __ __ . __ __ . __ __ . __ __ .
72
65
73
6
40
44.45
49
12.7
74
0
49
-6.35
74
0
49
12.7
74
0
49
-6.35
74
0
49
0
74
0
49
-6.35
74
0
0
LTYPE
5
3F
330
5
100
AcDbSymbolTableRecord
100
AcDbLinetypeTableRecord
2
BORDER2
70
0
3
Border (.5x) __.__.__.__.__.__.__.__.__.__.__.
72
65
73
6
40
22.225
49
6.35
74
0
49
-3.175
74
0
49
6.35
74
0
49
-3.175
74
0
49
0
74
0
49
-3.175
74
0
0
LTYPE
5
40
330
5
100
AcDbSymbolTableRecord
100
AcDbLinetypeTableRecord
2
BORDERX2
70
0
3
Border (2x) ____  ____  .  ____  ____  .  ___
72
65
73
6
40
88.9
49
25.4
74
0
49
-12.7
74
0
49
25.4
74
0
49
-12.7
74
0
49
0
74
0
49
-12.7
74
0
0
LTYPE
5
41
330
5
100
AcDbSymbolTableRecord
100
AcDbLinetypeTableRecord
2
CENTER
70
0
3
Center ____ _ ____ _ ____ _ ____ _ ____ _ ____
72
65
73
4
40
50.8
49
31.75
74
0
49
-6.35
74
0
49
6.35
74
0
49
-6.35
74
0
0
LTYPE
5
42
330
5
100
AcDbSymbolTableRecord
100
AcDbLinetypeTableRecord
2
CENTER2
70
0
3
Center (.5x) ___ _ ___ _ ___ _ ___ _ ___ _ ___
72
65
73
4
40
28.575
49
19.05
74
0
49
-3.175
74
0
49
3.175
74
0
49
-3.175
74
0
0
LTYPE
5
43
330
5
100
AcDbSymbolTableRecord
100
AcDbLinetypeTableRecord
2
CENTERX2
70
0
3
Center (2x) ________  __  ________  __  _____
72
65
73
4
40
101.6
49
63.5
74
0
49
-12.7
74
0
49
12.7
74
0
49
-12.7
74
0
0
ENDTAB
0
TABLE
2
LAYER
5
2
330
0
100
AcDbSymbolTable
70
1
0
LAYER
5
10
330
2
100
AcDbSymbolTableRecord
100
AcDbLayerTableRecord
2
0
70
0
62
7
6
CONTINUOUS
370
0
390
F
0
LAYER
5
44
330
2
100
AcDbSymbolTableRecord
100
AcDbLayerTableRecord
2
PYDXF
70
0
62
7
6
CONTINUOUS
370
0
390
F
0
ENDTAB
0
TABLE
2
STYLE
5
3
330
0
100
AcDbSymbolTable
70
3
0
STYLE
5
45
330
2
100
AcDbSymbolTableRecord
100
AcDbTextStyleTableRecord
2
Standard
70
0
40
0
41
1
50
0
71
0
42
1
3
txt
4

0
ENDTAB
0
TABLE
2
VIEW
5
6
330
0
100
AcDbSymbolTable
70
0
0
ENDTAB
0
TABLE
2
UCS
5
7
330
0
100
AcDbSymbolTable
70
0
0
ENDTAB
0
TABLE
2
APPID
5
9
330
0
100
AcDbSymbolTable
70
1
0
APPID
5
12
330
9
100
AcDbSymbolTableRecord
100
AcDbRegAppTableRecord
2
ACAD
70
0
0
ENDTAB
0
TABLE
2
DIMSTYLE
5
A
330
0
100
AcDbSymbolTable
70
1
100
AcDbDimStyleTable
71
1
0
DIMSTYLE
105
46
330
A
100
AcDbSymbolTableRecord
100
AcDbDimStyleTableRecord
2
Standard
70
0
40
1
41
0.1
42
0.025
43
0.38
44
0.05
45
0
46
0
47
0
48
0
140
0.1
141
0.09
142
0
143
25.4
144
1
145
0
146
1
147
0.1
148
0
71
0
72
0
73
0
74
1
75
0
76
0
77
0
78
0
79
0
170
0
171
2
172
0
173
0
174
0
175
0
176
0
177
0
178
0
179
0
271
4
272
4
273
2
274
2
275
0
276
0
277
2
278
46
279
0
280
0
281
0
282
0
283
1
284
0
285
0
286
0
288
0
289
3
340
Standard
341

371
-2
372
-2
0
ENDTAB
0
TABLE
2
BLOCK_RECORD
5
1
330
0
100
AcDbSymbolTable
70
2
0
BLOCK_RECORD
5
1F
330
1
100
AcDbSymbolTableRecord
100
AcDbBlockTableRecord
2
*Model_Space
70
0
280
1
281
0
0
BLOCK_RECORD
5
1E
330
1
100
AcDbSymbolTableRecord
100
AcDbBlockTableRecord
2
*Paper_Space
70
0
280
1
281
0
0
BLOCK_RECORD
5
47
330
1
100
AcDbSymbolTableRecord
100
AcDbBlockTableRecord
2
post2
70
0
280
1
281
0
0
BLOCK_RECORD
5
4A
330
1
100
AcDbSymbolTableRecord
100
AcDbBlockTableRecord
2
post45
70
0
280
1
281
0
0
ENDTAB
0
ENDSEC
0
SECTION
2
BLOCKS
0
BLOCK
5
20
330
1F
100
AcDbEntity
8
0
100
AcDbBlockBegin
2
*Model_Space
70
0
10
0
20
0
30
0
3
*Model_Space
1

0
ENDBLK
5
21
330
1F
100
AcDbEntity
8
0
100
AcDbBlockEnd
0
BLOCK
5
1C
330
1B
100
AcDbEntity
8
0
100
AcDbBlockBegin
2
*Paper_Space
70
0
10
0
20
0
30
0
3
*Paper_Space
1

0
ENDBLK
5
1D
330
1F
100
AcDbEntity
8
0
100
AcDbBlockEnd
0
BLOCK
5
48
330
47
100
AcDbEntity
8
0
100
AcDbBlockBegin
2
post2
70
0
10
0
20
0
3
post2
1

0
LINE
5
4D
100
AcDbEntity
8
PYDXF
6
ByLayer
62
256
370
0
100
AcDbLine
10
0
20
0
11
4
21
0
0
LINE
5
4E
100
AcDbEntity
8
PYDXF
6
ByLayer
62
256
370
0
100
AcDbLine
10
4
20
0
11
4
21
4
0
LINE
5
4F
100
AcDbEntity
8
PYDXF
6
ByLayer
62
256
370
0
100
AcDbLine
10
4
20
4
11
0
21
4
0
LINE
5
50
100
AcDbEntity
8
PYDXF
6
ByLayer
62
256
370
0
100
AcDbLine
10
0
20
4
11
0
21
0
0
ENDBLK
5
49
330
47
100
AcDbEntity
8
0
100
AcDbBlockEnd
0
BLOCK
5
4B
330
4A
100
AcDbEntity
8
0
100
AcDbBlockBegin
2
post45
70
0
10
0
20
0
3
post45
1

0
LINE
5
51
100
AcDbEntity
8
PYDXF
6
ByLayer
62
256
370
0
100
AcDbLine
10
0
20
0
11
2.82842712475
21
2.82842712475
0
LINE
5
52
100
AcDbEntity
8
PYDXF
6
ByLayer
62
256
370
0
100
AcDbLine
10
2.82842712475
20
2.82842712475
11
4.4408920985e-16
21
5.65685424949
0
LINE
5
53
100
AcDbEntity
8
PYDXF
6
ByLayer
62
256
370
0
100
AcDbLine
10
4.4408920985e-16
20
5.65685424949
11
-2.82842712475
21
2.82842712475
0
LINE
5
54
100
AcDbEntity
8
PYDXF
6
ByLayer
62
256
370
0
100
AcDbLine
10
-2.82842712475
20
2.82842712475
11
0
21
0
0
ENDBLK
5
4C
330
4A
100
AcDbEntity
8
0
100
AcDbBlockEnd
0
ENDSEC
0
SECTION
2
ENTITIES
0
DIMENSION
5
55
100
AcDbEntity
8
PYDXF
6
ByLayer
62
256
370
0
100
AcDbDimension
10
-1.22464679915e-15
20
-20
30
0
11
-96
21
-5
31
0
70
33
71
5
3
Standard
53
0
210
0
220
0
230
1
100
AcDbAlignedDimension
13
-192
23
0
33
0
14
0
24
0
34
0
0
DIMENSION
5
56
100
AcDbEntity
8
PYDXF
6
ByLayer
62
256
370
0
100
AcDbDimension
10
-230
20
192
30
0
11
-245
21
96
31
0
70
33
71
5
3
Standard
53
0
210
0
220
0
230
1
100
AcDbAlignedDimension
13
-192
23
0
33
0
14
-192
24
192
34
0
0
INSERT
5
57
100
AcDbEntity
8
PYDXF
6
ByLayer
62
256
370
0
100
AcDbBlockReference
2
post2
10
-10
20
-4
30
0
41
1
42
1
43
0
50
0
70
1
71
1
44
1
45
1
0
INSERT
5
58
100
AcDbEntity
8
PYDXF
6
ByLayer
62
256
370
0
100
AcDbBlockReference
2
post2
10
-70
20
-4
30
0
41
1
42
1
43
0
50
0
70
1
71
1
44
1
45
1
0
INSERT
5
59
100
AcDbEntity
8
PYDXF
6
ByLayer
62
256
370
0
100
AcDbBlockReference
2
post2
10
-130
20
-4
30
0
41
1
42
1
43
0
50
0
70
1
71
1
44
1
45
1
0
INSERT
5
5A
100
AcDbEntity
8
PYDXF
6
ByLayer
62
256
370
0
100
AcDbBlockReference
2
post2
10
-190
20
-4
30
0
41
1
42
1
43
0
50
0
70
1
71
1
44
1
45
1
0
INSERT
5
5B
100
AcDbEntity
8
PYDXF
6
ByLayer
62
256
370
0
100
AcDbBlockReference
2
post2
10
-196
20
2
30
0
41
1
42
1
43
0
50
0
70
1
71
1
44
1
45
1
0
DIMENSION
5
5C
100
AcDbEntity
8
PYDXF
6
ByLayer
62
256
370
0
100
AcDbDimension
10
-6
20
-8
30
0
11
-3
21
7
31
0
70
32
71
5
72
0
3
Standard
53
0
210
0
220
0
230
1
100
AcDbAlignedDimension
13
0
23
0
33
0
14
-6
24
0
34
0
100
AcDbRotatedDimension
0
DIMENSION
5
5D
100
AcDbEntity
8
PYDXF
6
ByLayer
62
256
370
0
100
AcDbDimension
10
-70
20
12
30
0
11
-40
21
27
31
0
70
32
71
5
72
0
3
Standard
53
0
210
0
220
0
230
1
100
AcDbAlignedDimension
13
-10
23
0
33
0
14
-70
24
0
34
0
100
AcDbRotatedDimension
0
DIMENSION
5
5E
100
AcDbEntity
8
PYDXF
6
ByLayer
62
256
370
0
100
AcDbDimension
10
-130
20
12
30
0
11
-100
21
27
31
0
70
32
71
5
72
0
3
Standard
53
0
210
0
220
0
230
1
100
AcDbAlignedDimension
13
-70
23
0
33
0
14
-130
24
0
34
0
100
AcDbRotatedDimension
0
DIMENSION
5
5F
100
AcDbEntity
8
PYDXF
6
ByLayer
62
256
370
0
100
AcDbDimension
10
-190
20
12
30
0
11
-160
21
27
31
0
70
32
71
5
72
0
3
Standard
53
0
210
0
220
0
230
1
100
AcDbAlignedDimension
13
-130
23
0
33
0
14
-190
24
0
34
0
100
AcDbRotatedDimension
0
DIMENSION
5
60
100
AcDbEntity
8
PYDXF
6
ByLayer
62
256
370
0
100
AcDbDimension
10
-192
20
-32
30
0
11
-191
21
-17
31
0
70
32
71
5
72
0
3
Standard
53
0
210
0
220
0
230
1
100
AcDbAlignedDimension
13
-190
23
0
33
0
14
-192
24
0
34
0
100
AcDbRotatedDimension
0
LINE
5
61
100
AcDbEntity
8
0
6
ByLayer
62
7
370
0
100
AcDbLine
10
0
20
0
11
-192
21
0
0
LINE
5
62
100
AcDbEntity
8
0
6
ByLayer
62
7
370
0
100
AcDbLine
10
-192
20
0
11
-192
21
192
0
DIMENSION
5
63
100
AcDbEntity
8
PYDXF
6
ByLayer
62
256
370
0
100
AcDbDimension
10
504
20
396
30
0
11
300.676220736
21
411
31
0
70
32
71
5
3
Standard
53
0
210
0
220
0
230
1
100
AcDbAlignedDimension
13
42.6762207357
23
378.67615973
33
0
14
558.676220736
24
378.67615973
34
0
100
AcDbRotatedDimension
0
DIMENSION
5
64
100
AcDbEntity
8
PYDXF
6
ByLayer
62
256
370
0
100
AcDbDimension
10
24.6761942652
20
396.676192083
30
0
11
-36.8421022838
21
356.371115608
31
0
70
33
71
5
3
Standard
53
0
210
0
220
0
230
1
100
AcDbAlignedDimension
13
-59.147172393
23
276.852799878
33
0
14
42.6762207357
24
378.67615973
34
0
0
INSERT
5
65
100
AcDbEntity
8
PYDXF
6
ByLayer
62
256
370
0
100
AcDbBlockReference
2
post45
10
-95.926855757
20
240.073608741
30
0
41
1
42
1
43
0
50
0
70
1
71
1
44
1
45
1
0
INSERT
5
66
100
AcDbEntity
8
PYDXF
6
ByLayer
62
256
370
0
100
AcDbBlockReference
2
post45
10
-59.147172394
20
276.852799877
30
0
41
1
42
1
43
0
50
0
70
1
71
1
44
1
45
1
0
DIMENSION
5
67
100
AcDbEntity
8
PYDXF
6
ByLayer
62
256
370
0
100
AcDbDimension
10
709.764529621
20
258.235469649
30
0
11
652.48886752
21
336.724313001
31
0
70
33
71
5
72
0
3
Standard
53
0
210
0
220
0
230
1
100
AcDbAlignedDimension
13
558.676220736
23
378.67615973
33
0
14
694.440744907
24
242.911679927
34
0
0
DIMENSION
5
68
100
AcDbEntity
8
PYDXF
6
ByLayer
62
256
370
0
100
AcDbDimension
10
716
20
146.911679927
30
0
11
701
21
194.911679927
31
0
70
33
71
5
72
0
3
Standard
53
0
210
0
220
0
230
1
100
AcDbAlignedDimension
13
694.440744907
23
242.911679927
33
0
14
694.440744907
24
146.911679927
34
0
0
INSERT
5
69
100
AcDbEntity
8
PYDXF
6
ByLayer
62
256
370
0
100
AcDbBlockReference
2
post45
10
694.440744907
20
242.911679927
30
0
41
1
42
1
43
0
50
0
70
1
71
1
44
1
45
1
0
INSERT
5
6A
100
AcDbEntity
8
PYDXF
6
ByLayer
62
256
370
0
100
AcDbBlockReference
2
post2
10
694.440744907
20
152.911679927
30
0
41
1
42
1
43
0
50
0
70
1
71
1
44
1
45
1
0
INSERT
5
6B
100
AcDbEntity
8
PYDXF
6
ByLayer
62
256
370
0
100
AcDbBlockReference
2
post2
10
694.440744907
20
197.911679927
30
0
41
1
42
1
43
0
50
0
70
1
71
1
44
1
45
1
0
INSERT
5
6C
100
AcDbEntity
8
PYDXF
6
ByLayer
62
256
370
2
100
AcDbBlockReference
2
post45
10
-26.1488506155
20
309.851110871
30
0
41
1
42
1
43
0
50
0
70
1
71
1
44
1
45
1
0
INSERT
5
6D
100
AcDbEntity
8
PYDXF
6
ByLayer
62
256
370
2
100
AcDbBlockReference
2
post45
10
6.8494713721
20
342.849422075
30
0
41
1
42
1
43
0
50
0
70
1
71
1
44
1
45
1
0
DIMENSION
5
6E
100
AcDbEntity
8
PYDXF
6
ByLayer
62
256
370
2
100
AcDbDimension
10
14.8494458818
20
334.849444951
30
0
11
-20
21
256
31
0
70
33
71
5
3
Standard
53
0
210
0
220
0
230
1
100
AcDbAlignedDimension
13
-26.148850245
23
309.851111242
33
0
14
6.8494713721
24
342.849422075
34
0
0
DIMENSION
5
6F
100
AcDbEntity
8
PYDXF
6
ByLayer
62
256
370
2
100
AcDbDimension
10
-18.1488705063
20
301.851128889
30
0
11
-64
21
236
31
0
70
33
71
5
3
Standard
53
0
210
0
220
0
230
1
100
AcDbAlignedDimension
13
-59.147172463
23
276.852799808
33
0
14
-26.148850245
24
309.851111242
34
0
0
INSERT
5
70
100
AcDbEntity
8
PYDXF
6
ByLayer
62
256
370
2
100
AcDbBlockReference
2
post45
10
39.8477932195
20
375.847733138
30
0
41
1
42
1
43
0
50
0
70
1
71
1
44
1
45
1
0
INSERT
5
71
100
AcDbEntity
8
PYDXF
6
ByLayer
62
256
370
2
100
AcDbBlockReference
2
post45
10
661.206720761
20
276.145693212
30
0
41
1
42
1
43
0
50
0
70
1
71
1
44
1
45
1
0
INSERT
5
72
100
AcDbEntity
8
PYDXF
6
ByLayer
62
256
370
2
100
AcDbBlockReference
2
post45
10
627.972696615
20
309.379706498
30
0
41
1
42
1
43
0
50
0
70
1
71
1
44
1
45
1
0
INSERT
5
73
100
AcDbEntity
8
PYDXF
6
ByLayer
62
256
370
2
100
AcDbBlockReference
2
post45
10
594.738672468
20
342.613719783
30
0
41
1
42
1
43
0
50
0
70
1
71
1
44
1
45
1
0
INSERT
5
74
100
AcDbEntity
8
PYDXF
6
ByLayer
62
256
370
2
100
AcDbBlockReference
2
post45
10
561.504648322
20
375.847733068
30
0
41
1
42
1
43
0
50
0
70
1
71
1
44
1
45
1
0
DIMENSION
5
75
100
AcDbEntity
8
PYDXF
6
ByLayer
62
256
370
2
100
AcDbDimension
10
582.062478097
20
329.937521269
30
0
11
609.286090155
21
323.927118078
31
0
70
33
71
5
3
Standard
53
0
210
0
220
0
230
1
100
AcDbAlignedDimension
13
627.972696615
23
309.379706498
33
0
14
594.738672468
24
342.613719783
34
0
0
INSERT
5
76
100
AcDbEntity
8
PYDXF
6
ByLayer
62
256
370
2
100
AcDbBlockReference
2
post2
10
508.676220736
20
378.67615973
30
0
41
1
42
1
43
0
50
0
70
1
71
1
44
1
45
1
0
INSERT
5
77
100
AcDbEntity
8
PYDXF
6
ByLayer
62
256
370
2
100
AcDbBlockReference
2
post2
10
448.676220736
20
378.67615973
30
0
41
1
42
1
43
0
50
0
70
1
71
1
44
1
45
1
0
INSERT
5
78
100
AcDbEntity
8
PYDXF
6
ByLayer
62
256
370
2
100
AcDbBlockReference
2
post2
10
388.676220736
20
378.67615973
30
0
41
1
42
1
43
0
50
0
70
1
71
1
44
1
45
1
0
INSERT
5
79
100
AcDbEntity
8
PYDXF
6
ByLayer
62
256
370
2
100
AcDbBlockReference
2
post2
10
328.676220736
20
378.67615973
30
0
41
1
42
1
43
0
50
0
70
1
71
1
44
1
45
1
0
INSERT
5
7A
100
AcDbEntity
8
PYDXF
6
ByLayer
62
256
370
2
100
AcDbBlockReference
2
post2
10
268.676220736
20
378.67615973
30
0
41
1
42
1
43
0
50
0
70
1
71
1
44
1
45
1
0
INSERT
5
7B
100
AcDbEntity
8
PYDXF
6
ByLayer
62
256
370
2
100
AcDbBlockReference
2
post2
10
208.676220736
20
378.67615973
30
0
41
1
42
1
43
0
50
0
70
1
71
1
44
1
45
1
0
INSERT
5
7C
100
AcDbEntity
8
PYDXF
6
ByLayer
62
256
370
2
100
AcDbBlockReference
2
post2
10
148.676220736
20
378.67615973
30
0
41
1
42
1
43
0
50
0
70
1
71
1
44
1
45
1
0
INSERT
5
7D
100
AcDbEntity
8
PYDXF
6
ByLayer
62
256
370
2
100
AcDbBlockReference
2
post2
10
88.676220736
20
378.67615973
30
0
41
1
42
1
43
0
50
0
70
1
71
1
44
1
45
1
0
DIMENSION
5
7E
100
AcDbEntity
8
PYDXF
6
ByLayer
62
256
370
2
100
AcDbDimension
10
88.676220566
20
364.000000085
30
0
11
65.6762205439
21
379.000000351
31
0
70
33
71
5
3
Standard
53
0
210
0
220
0
230
1
100
AcDbAlignedDimension
13
42.6762203442
23
378.676160263
33
0
14
88.676220736
24
378.67615973
34
0
0
DIMENSION
5
7F
100
AcDbEntity
8
PYDXF
6
ByLayer
62
256
370
2
100
AcDbDimension
10
148.676220736
20
364
30
0
11
118.676220736
21
379
31
0
70
33
71
5
3
Standard
53
0
210
0
220
0
230
1
100
AcDbAlignedDimension
13
88.676220736
23
378.67615973
33
0
14
148.676220736
24
378.67615973
34
0
0
DIMENSION
5
80
100
AcDbEntity
8
PYDXF
6
ByLayer
62
256
370
2
100
AcDbDimension
10
512.676220736
20
364
30
0
11
535.676220736
21
379
31
0
70
33
71
5
3
Standard
53
0
210
0
220
0
230
1
100
AcDbAlignedDimension
13
558.676220736
23
378.67615973
33
0
14
512.676220736
24
378.67615973
34
0
0
DIMENSION
5
81
100
AcDbEntity
8
PYDXF
6
ByLayer
62
256
370
2
100
AcDbDimension
10
452.676220736
20
364
30
0
11
482.676220736
21
379
31
0
70
33
71
5
3
Standard
53
0
210
0
220
0
230
1
100
AcDbAlignedDimension
13
512.676220736
23
378.67615973
33
0
14
452.676220736
24
378.67615973
34
0
0
DIMENSION
5
82
100
AcDbEntity
8
PYDXF
6
ByLayer
62
256
370
2
100
AcDbDimension
10
47.8477625003
20
367.847761243
30
0
11
2
21
298
31
0
70
33
71
5
3
Standard
53
0
210
0
220
0
230
1
100
AcDbAlignedDimension
13
6.8494713721
23
342.849422075
33
0
14
39.8477932195
24
375.847733138
34
0
0
INSERT
5
83
100
AcDbEntity
8
PYDXF
6
ByLayer
62
256
370
2
100
AcDbBlockReference
2
post45
10
-144
20
192
30
0
41
1
42
1
43
0
50
0
70
1
71
1
44
1
45
1
0
INSERT
5
84
100
AcDbEntity
8
PYDXF
6
ByLayer
62
256
370
2
100
AcDbBlockReference
2
post45
10
-119.958365511
20
216.041626632
30
0
41
1
42
1
43
0
50
0
70
1
71
1
44
1
45
1
0
DIMENSION
5
85
100
AcDbEntity
8
PYDXF
6
ByLayer
62
256
370
2
100
AcDbDimension
10
-171.999996078
20
220.000005229
30
0
11
-157.150747781
21
256.062448643
31
0
70
33
71
5
3
Standard
53
0
210
0
220
0
230
1
100
AcDbAlignedDimension
13
-93.088303435
23
242.911679927
33
0
14
-144
24
192
34
0
0
DIMENSION
5
86
100
AcDbEntity
8
PYDXF
6
ByLayer
62
256
370
2
100
AcDbDimension
10
-113.129793621
20
214.869987615
30
0
11
-111.7207447
21
237.492476148
31
0
70
33
71
5
3
Standard
53
0
210
0
220
0
230
1
100
AcDbAlignedDimension
13
-93.098428632
23
242.902035866
33
0
14
-117.129938386
24
218.870053757
34
0
0
DIMENSION
5
87
100
AcDbEntity
8
PYDXF
6
ByLayer
62
256
370
2
100
AcDbDimension
10
-137.171577472
20
190.828430261
30
0
11
-135.757359778
21
213.455847
31
0
70
33
71
5
3
Standard
53
0
210
0
220
0
230
1
100
AcDbAlignedDimension
13
-117.129937924
23
218.870053295
33
0
14
-141.171572875
24
194.828427125
34
0
0
DIMENSION
5
88
100
AcDbEntity
8
PYDXF
6
ByLayer
62
256
370
2
100
AcDbDimension
10
668
20
242.911679927
30
0
11
653
21
222.411679927
31
0
70
33
71
5
3
Standard
53
0
210
0
220
0
230
1
100
AcDbAlignedDimension
13
694.440744907
23
201.911679927
33
0
14
694.440744907
24
242.911679927
34
0
0
DIMENSION
5
89
100
AcDbEntity
8
PYDXF
6
ByLayer
62
256
370
2
100
AcDbDimension
10
668
20
201.911679927
30
0
11
653
21
179.411679927
31
0
70
33
71
5
3
Standard
53
0
210
0
220
0
230
1
100
AcDbAlignedDimension
13
694.440744907
23
156.911679927
33
0
14
694.440744907
24
201.911679927
34
0
0
LINE
5
8A
100
AcDbEntity
8
0
6
ByLayer
62
7
370
0
100
AcDbLine
10
-144
20
192
11
-93.088303435
21
242.911679927
0
LINE
5
8B
100
AcDbEntity
8
0
6
ByLayer
62
7
370
0
100
AcDbLine
10
-93.088303435
20
242.911679927
11
-59.147172393
21
276.852799878
0
LINE
5
8C
100
AcDbEntity
8
0
6
ByLayer
62
7
370
0
100
AcDbLine
10
-59.147172393
20
276.852799878
11
42.6762207357
21
378.67615973
0
LINE
5
8D
100
AcDbEntity
8
0
6
ByLayer
62
7
370
0
100
AcDbLine
10
42.6762207357
20
378.67615973
11
558.676220736
21
378.67615973
0
LINE
5
8E
100
AcDbEntity
8
0
6
ByLayer
62
7
370
0
100
AcDbLine
10
558.676220736
20
378.67615973
11
694.440744907
21
242.911679927
0
LINE
5
8F
100
AcDbEntity
8
0
6
ByLayer
62
7
370
0
100
AcDbLine
10
694.440744907
20
242.911679927
11
694.440744907
21
146.911679927
0
LINE
5
90
100
AcDbEntity
8
0
6
ByLayer
62
256
370
8
100
AcDbLine
10
-192
20
192
11
-144
21
192
0
INSERT
5
91
100
AcDbEntity
8
0
6
ByLayer
62
256
370
8
100
AcDbBlockReference
2
post2
10
-190
20
192
30
0
41
1
42
1
43
0
50
0
70
1
71
1
44
1
45
1
0
INSERT
5
92
100
AcDbEntity
8
0
6
ByLayer
62
256
370
8
100
AcDbBlockReference
2
post2
10
-196
20
186
30
0
41
1
42
1
43
0
50
0
70
1
71
1
44
1
45
1
0
INSERT
5
93
100
AcDbEntity
8
0
6
ByLayer
62
256
370
8
100
AcDbBlockReference
2
post2
10
-192
20
63
30
0
41
-1
42
1
43
0
50
0
70
1
71
1
44
1
45
1
0
INSERT
5
94
100
AcDbEntity
8
0
6
ByLayer
62
256
370
8
100
AcDbBlockReference
2
post2
10
-192
20
125
30
0
41
-1
42
1
43
0
50
0
70
1
71
1
44
1
45
1
0
DIMENSION
5
95
100
AcDbEntity
8
0
6
ByLayer
62
256
370
8
100
AcDbDimension
10
-182
20
125
30
0
11
-197
21
155.5
31
0
70
33
71
5
72
0
3
Standard
53
0
210
0
220
0
230
1
100
AcDbAlignedDimension
13
-192
23
186
33
0
14
-192
24
125
34
0
0
DIMENSION
5
96
100
AcDbEntity
8
0
6
ByLayer
62
256
370
8
100
AcDbDimension
10
-180
20
63
30
0
11
-195
21
94
31
0
70
33
71
5
72
0
3
Standard
53
0
210
0
220
0
230
1
100
AcDbAlignedDimension
13
-192
23
125
33
0
14
-192
24
63
34
0
0
DIMENSION
5
97
100
AcDbEntity
8
0
6
ByLayer
62
256
370
8
100
AcDbDimension
10
-200
20
2
30
0
11
-215
21
32.5
31
0
70
33
71
5
72
0
3
Standard
53
0
210
0
220
0
230
1
100
AcDbAlignedDimension
13
-192
23
63
33
0
14
-192
24
2
34
0
0
DIMENSION
5
98
100
AcDbEntity
8
0
6
ByLayer
62
256
370
8
100
AcDbDimension
10
-143.999999968
20
190
30
0
11
-164.999999994
21
204.999999985
31
0
70
33
71
5
72
0
3
Standard
53
0
210
0
220
0
230
1
100
AcDbAlignedDimension
13
-186
23
192
33
0
14
-143.999999969
24
192.000000031
34
0
0
ENDSEC
0
SECTION
2
OBJECTS
0
DICTIONARY
5
C
330
0
100
AcDbDictionary
281
1
3
ACAD_GROUP
350
D
0
DICTIONARY
5
D
330
C
100
AcDbDictionary
281
1
0
ENDSEC
0
EOF
